# xmcd CD database file
#
# Track frame offsets:
#	150
#	13295
#	30480
#	48432
#	61750
#	73222
#	93710
#	108610
#	126530
#	144785
#	155152
#
# Disc length: 2457 seconds
#
# Revision: 0
# Processed by: cddbd v1.4PL0 Copyright (c) Steve Scherf et al.
# Submitted via: CDex 1.40Release
#
DISCID=a109970b
DTITLE=Northern Cree - Here To Stay
DYEAR=1999
DGENRE=Native American
TTITLE0=Millenium
TTITLE1=Swerve and Sway
TTITLE2=En Guarde (whistled)
TTITLE3=Willow
TTITLE4=Heads Up
TTITLE5=Boo
TTITLE6=Old Timer
TTITLE7=The Challenge
TTITLE8=The Bushwick
TTITLE9=Original or Extra Crispy
TTITLE10=Here To Stay
EXTD=YEAR: 1999 ID3G: 64
EXTT0=
EXTT1=
EXTT2=
EXTT3=
EXTT4=
EXTT5=
EXTT6=
EXTT7=
EXTT8=
EXTT9=
EXTT10=
PLAYORDER=
